<svg xmlns="http://www.w3.org/2000/svg" viewBox="0 0 1600 220" preserveAspectRatio="none">
<defs>
  <linearGradient id="stag" x1="0" y1="1" x2="0" y2="0">
    <stop offset="0" stop-color="#8a4630"/><stop offset="1" stop-color="#c9745a"/>
  </linearGradient>
  <linearGradient id="stag2" x1="0" y1="1" x2="0" y2="0">
    <stop offset="0" stop-color="#9a5238"/><stop offset="1" stop-color="#d98a64"/>
  </linearGradient>
  <linearGradient id="brain" x1="0" y1="1" x2="0" y2="0">
    <stop offset="0" stop-color="#8d7038"/><stop offset="1" stop-color="#c9a45a"/>
  </linearGradient>
  <linearGradient id="fan" x1="0" y1="1" x2="0" y2="0">
    <stop offset="0" stop-color="#5a4668"/><stop offset="1" stop-color="#8a6a96"/>
  </linearGradient>
  <linearGradient id="barrel" x1="0" y1="1" x2="0" y2="0">
    <stop offset="0" stop-color="#6e3a2e"/><stop offset="1" stop-color="#a85a48"/>
  </linearGradient>
  <linearGradient id="grass" x1="0" y1="1" x2="0" y2="0">
    <stop offset="0" stop-color="#2e5f56"/><stop offset="1" stop-color="#56988a"/>
  </linearGradient>
  <linearGradient id="anem" x1="0" y1="1" x2="0" y2="0">
    <stop offset="0" stop-color="#8a4a5c"/><stop offset="1" stop-color="#c97b8c"/>
  </linearGradient>
</defs>

<!-- ====== BACK LAYER: hazy distant reef (atmospheric perspective) ====== -->
<g fill="#2e607c" opacity="0.45">
  <path d="M400,206 C394,168 380,140 358,118 L368,114 C390,134 404,162 412,200 Z"/>
  <path d="M412,202 C414,160 410,128 416,100 L428,102 C424,132 426,164 424,202 Z"/>
  <path d="M424,202 C432,164 446,138 466,120 L474,128 C456,146 444,170 438,204 Z"/>
  <ellipse cx="760" cy="200" rx="70" ry="34"/>
  <ellipse cx="830" cy="206" rx="40" ry="20"/>
</g>
<g stroke="#2e607c" opacity="0.45" fill="none" stroke-linecap="round">
  <path d="M1170,204 C1172,166 1166,138 1174,108" stroke-width="10"/>
  <path d="M1172,150 C1156,138 1146,122 1142,104" stroke-width="8"/>
  <path d="M1173,138 C1188,124 1196,108 1198,88" stroke-width="8"/>
  <path d="M1196,96 C1203,84 1212,77 1222,74" stroke-width="6"/>
</g>

<!-- ====== MID LAYER: colored corals ====== -->

<!-- staghorn coral, pale-tipped -->
<g stroke="url(#stag)" fill="none" stroke-linecap="round">
  <path d="M150,204 C152,176 148,158 154,134" stroke-width="12"/>
  <path d="M153,166 C140,154 132,138 129,120" stroke-width="9"/>
  <path d="M153,154 C166,142 172,128 174,108" stroke-width="9"/>
  <path d="M152,184 C138,178 128,166 124,154" stroke-width="8"/>
  <path d="M172,116 C178,106 186,100 196,96" stroke-width="6"/>
  <path d="M132,126 C125,116 117,112 107,110" stroke-width="6"/>
  <path d="M154,140 C158,128 156,118 160,106" stroke-width="7"/>
</g>
<g fill="#f0d9c8">
  <circle cx="196" cy="96" r="3.4"/><circle cx="107" cy="110" r="3.4"/>
  <circle cx="174" cy="107" r="3.6"/><circle cx="129" cy="119" r="3.6"/>
  <circle cx="160" cy="105" r="3.4"/><circle cx="123" cy="153" r="3.2"/>
</g>

<!-- brain coral with grooves -->
<ellipse cx="312" cy="198" rx="64" ry="32" fill="url(#brain)"/>
<g stroke="#73591f" stroke-opacity="0.65" stroke-width="2.4" fill="none" stroke-linecap="round">
  <path d="M258,192 C270,184 282,188 294,182 C306,176 318,180 330,176"/>
  <path d="M264,200 C278,194 290,198 304,192 C318,187 332,191 348,186"/>
  <path d="M276,208 C290,202 306,206 320,200 C334,195 348,199 360,196"/>
  <path d="M286,178 C296,172 308,175 318,170"/>
</g>
<ellipse cx="368" cy="204" rx="32" ry="17" fill="url(#brain)" opacity="0.9"/>
<path d="M344,200 C354,194 364,198 376,193 M350,208 C362,202 374,206 386,202" stroke="#73591f" stroke-opacity="0.6" stroke-width="2.2" fill="none" stroke-linecap="round"/>

<!-- sea fan: ribs + lattice -->
<g stroke="url(#fan)" fill="none" stroke-linecap="round">
  <path d="M540,206 C530,166 514,134 492,110" stroke-width="6"/>
  <path d="M540,206 C534,160 526,124 514,98" stroke-width="6"/>
  <path d="M540,206 C540,156 538,118 534,88" stroke-width="6.5"/>
  <path d="M540,206 C548,156 556,120 566,94" stroke-width="6"/>
  <path d="M540,206 C554,166 572,136 592,114" stroke-width="6"/>
  <path d="M498,124 C522,108 552,104 584,118" stroke-width="3.2"/>
  <path d="M506,148 C528,134 554,131 580,142" stroke-width="3.2"/>
  <path d="M516,172 C534,161 550,159 570,168" stroke-width="3.2"/>
</g>
<rect x="534" y="200" width="12" height="10" rx="3" fill="#4a3856"/>

<!-- barrel sponges with openings and ridges -->
<g>
  <path d="M688,204 C686,160 690,136 700,128 C710,136 714,160 712,204 Z" fill="url(#barrel)"/>
  <ellipse cx="700" cy="129" rx="9" ry="4.5" fill="#3c1f18"/>
  <path d="M692,150 C691,170 691,188 692,202 M708,150 C709,170 709,188 708,202" stroke="#5a2f24" stroke-width="1.8" fill="none"/>
  <path d="M716,204 C714,170 718,150 726,144 C734,150 738,170 736,204 Z" fill="url(#barrel)" opacity="0.92"/>
  <ellipse cx="726" cy="145" rx="7.5" ry="3.8" fill="#3c1f18"/>
  <path d="M740,204 C739,180 741,166 747,162 C753,166 755,180 754,204 Z" fill="url(#barrel)" opacity="0.85"/>
  <ellipse cx="747" cy="163" rx="5.5" ry="3" fill="#3c1f18"/>
</g>

<!-- anemone: bulb-tipped tentacles on a mound -->
<g stroke="url(#anem)" fill="none" stroke-width="4.6" stroke-linecap="round">
  <path d="M862,200 C854,186 847,177 838,170"/>
  <path d="M868,200 C863,182 858,171 853,162"/>
  <path d="M876,200 C875,180 874,167 874,156"/>
  <path d="M884,200 C888,181 892,169 897,160"/>
  <path d="M891,200 C899,186 907,177 916,171"/>
  <path d="M872,200 C866,184 864,174 864,164"/>
  <path d="M881,200 C884,184 888,176 892,168"/>
</g>
<g fill="#e8a8b8">
  <circle cx="838" cy="170" r="3.2"/><circle cx="853" cy="162" r="3.2"/>
  <circle cx="874" cy="156" r="3.4"/><circle cx="897" cy="160" r="3.2"/>
  <circle cx="916" cy="171" r="3.2"/><circle cx="864" cy="164" r="3"/>
  <circle cx="892" cy="168" r="3"/>
</g>
<ellipse cx="877" cy="202" rx="32" ry="13" fill="#7c4252"/>

<!-- mid rocks -->
<ellipse cx="990" cy="202" rx="46" ry="21" fill="#1c3a4e"/>
<ellipse cx="1040" cy="206" rx="24" ry="12" fill="#16303f"/>

<!-- seagrass clusters -->
<g stroke="url(#grass)" fill="none" stroke-linecap="round">
  <path d="M54,202 C46,164 64,134 52,96" stroke-width="6.5"/>
  <path d="M72,203 C80,154 60,124 76,74" stroke-width="6.5"/>
  <path d="M90,202 C86,172 102,144 94,116" stroke-width="6"/>
  <path d="M1102,202 C1094,162 1112,132 1100,100" stroke-width="6.5"/>
  <path d="M1120,203 C1128,156 1110,128 1124,88" stroke-width="6.5"/>
  <path d="M1138,202 C1132,170 1148,144 1140,120" stroke-width="6"/>
  <path d="M1500,202 C1494,176 1506,156 1498,136" stroke-width="5.5"/>
  <path d="M1514,203 C1520,172 1508,152 1518,128" stroke-width="5.5"/>
</g>

<!-- tall staghorn cluster right, pale-tipped -->
<g stroke="url(#stag2)" fill="none" stroke-linecap="round">
  <path d="M1260,206 C1262,168 1256,138 1264,104" stroke-width="13"/>
  <path d="M1262,154 C1246,142 1236,126 1232,106" stroke-width="10"/>
  <path d="M1262,142 C1278,128 1286,110 1288,88" stroke-width="10"/>
  <path d="M1263,174 C1248,168 1238,158 1232,146" stroke-width="9"/>
  <path d="M1287,96 C1294,84 1303,76 1314,72" stroke-width="7"/>
  <path d="M1235,112 C1228,100 1220,94 1210,92" stroke-width="7"/>
  <path d="M1264,112 C1268,98 1266,86 1270,72" stroke-width="8"/>
</g>
<g fill="#f2dccb">
  <circle cx="1314" cy="72" r="3.8"/><circle cx="1210" cy="92" r="3.8"/>
  <circle cx="1270" cy="71" r="4"/><circle cx="1232" cy="105" r="3.8"/>
  <circle cx="1288" cy="87" r="4"/><circle cx="1231" cy="145" r="3.6"/>
</g>

<!-- sun-star on the sand -->
<path d="M1396,196 L1402,184 L1408,196 L1421,198 L1411,205 L1414,217 L1402,210 L1390,217 L1393,205 L1383,198 Z" fill="#c98a4a"/>

<!-- ====== FRONT LAYER: dark seabed + foreground silhouettes ====== -->
<path d="M0,220 L0,196 C120,188 240,200 380,193 C520,186 640,202 800,195 C960,188 1080,201 1220,193 C1360,186 1500,199 1600,196 L1600,220 Z" fill="#03101c"/>
<g stroke="#03101c" fill="none" stroke-linecap="round">
  <path d="M232,202 C226,184 234,170 228,154" stroke-width="6"/>
  <path d="M244,203 C250,180 240,166 248,148" stroke-width="6"/>
  <path d="M958,204 C952,188 960,176 954,162" stroke-width="6"/>
  <path d="M970,204 C976,184 966,172 974,156" stroke-width="6"/>
  <path d="M1452,204 C1450,184 1456,172 1452,156" stroke-width="8"/>
  <path d="M1452,178 C1442,170 1436,160 1434,150" stroke-width="6"/>
  <path d="M1453,170 C1462,162 1466,152 1467,142" stroke-width="6"/>
</g>
<ellipse cx="630" cy="208" rx="36" ry="13" fill="#03101c"/>
</svg>
